<?xml version="1.0" encoding="UTF-8"?>
<!DOCTYPE svg PUBLIC "-//W3C//DTD SVG 1.1//EN" "http://www.w3.org/Graphics/SVG/1.1/DTD/svg11.dtd">
<!-- Creator: CorelDRAW X7 -->
<svg xmlns="http://www.w3.org/2000/svg" xml:space="preserve" width="118.418mm" height="77.904mm" version="1.1" style="shape-rendering:geometricPrecision; text-rendering:geometricPrecision; image-rendering:optimizeQuality; fill-rule:evenodd; clip-rule:evenodd"
viewBox="0 0 12041 7921"
 xmlns:xlink="http://www.w3.org/1999/xlink">
 <defs>
  <style type="text/css">
   <![CDATA[
    .fil1 {fill:#2E3E50}
    .fil0 {fill:#7E8E8C}
    .fil3 {fill:#7E8E8C;fill-rule:nonzero}
    .fil2 {fill:#C0242B;fill-rule:nonzero}
   ]]>
  </style>
 </defs>
 <g id="Layer_x0020_1">
  <metadata id="CorelCorpID_0Corel-Layer"/>
  <path class="fil0" d="M7817 5653c-450,477 -1089,775 -1796,775 -708,0 -1347,-298 -1797,-775l3593 0zm-1796 -4160c841,0 1584,421 2030,1065l-4061 0c446,-644 1189,-1065 2031,-1065z"/>
  <path class="fil1" d="M9602 5653c-634,1341 -1999,2268 -3581,2268 -1583,0 -2948,-927 -3582,-2268l407 0c606,1133 1800,1904 3175,1904 1374,0 2568,-771 3174,-1904l407 0zm-3581 -5653c1693,0 3138,1063 3704,2558l-392 0c-547,-1290 -1824,-2194 -3312,-2194 -1489,0 -2766,904 -3313,2194l-392 0c566,-1495 2011,-2558 3705,-2558z"/>
  <path class="fil2" d="M1007 3322c-115,-114 -265,-171 -415,-171 -395,0 -592,291 -592,606 0,294 171,570 592,570 196,0 335,-75 446,-201l0 -472 -480 0 0 189 286 0 0 198c-88,71 -164,90 -252,90 -279,0 -386,-190 -386,-374 0,-231 146,-413 386,-413 97,0 209,40 284,112l131 -134zm1180 965l-339 -382c213,-43 283,-198 283,-352 0,-194 -139,-370 -403,-372 -177,2 -355,0 -532,0l0 1121 211 0 0 -374 203 0 326 374 251 0 0 -15zm-459 -909c133,0 192,90 192,180 0,90 -57,179 -192,179l-321 0 0 -359 321 0zm757 5l316 0c269,0 270,396 0,396l-316 0 0 -396zm316 -202c-176,-2 -352,0 -527,0l0 1121 211 0 0 -329 316 0c549,0 547,-792 0,-792zm1087 202l317 0c269,0 270,396 0,396l-317 0 0 -396zm317 -202c-176,-2 -352,0 -528,0l0 1121 211 0 0 -329 317 0c548,0 547,-792 0,-792zm553 0l0 1121 787 0 0 -195 -576 0 0 -926 -211 0zm1825 1121l230 0 -502 -1121 -231 0 -502 1121 229 0 96 -211 585 0 95 211zm-180 -408l-415 0 208 -477 207 477zm611 408l211 0 0 -929 355 0 0 -192c-324,0 -598,0 -921,0l0 192 355 0 0 929zm905 0l0 -1121 -209 0 0 1121 209 0zm934 -426l-548 -695 -172 0 0 1121 211 0 0 -756 589 756 0 0 131 0 0 -1121 -211 0 0 695zm615 426l0 -1121 -209 0 0 1121 209 0zm971 -1118l0 641c0,192 -99,309 -273,309 -175,0 -290,-107 -290,-309l0 -641 -209 0 0 641c0,338 228,501 497,501 281,0 484,-170 484,-501l0 -641 -209 0zm1391 1118l211 0 0 -1118 -241 0 -351 481 -350 -481 -243 0 0 1118 211 0 0 -813 357 487 41 0 365 -485 0 811z"/>
  <path class="fil3" d="M3912 5135l102 0 0 -541 -117 0 -169 233 -170 -233 -117 0 0 541 102 0 0 -393 173 235 20 0 176 -235 0 393zm424 0l0 -543 -102 0 0 543 102 0zm219 -543l0 543 381 0 0 -94 -279 0 0 -449 -102 0zm576 0l0 543 381 0 0 -94 -278 0 0 -449 -103 0zm981 442l-304 0 0 -122 293 0 0 -95 -293 0 0 -126 304 0 0 -99 -406 0c0,181 0,363 0,543l406 0 0 -101zm575 -105l-266 -337 -83 0 0 543 102 0 0 -366 285 366 0 0 64 0 0 -543 -102 0 0 337zm421 206l0 -543 -101 0 0 543 101 0zm593 -541l0 310c0,93 -48,150 -132,150 -85,0 -140,-52 -140,-150l0 -310 -102 0 0 310c0,164 111,243 241,243 136,0 235,-82 235,-243l0 -310 -102 0zm797 541l102 0 0 -541 -116 0 -170 233 -170 -233 -117 0 0 541 102 0 0 -393 173 235 20 0 176 -235 0 393z"/>
 </g>
</svg>
