<?xml version="1.0" encoding="UTF-8"?>
<!DOCTYPE svg PUBLIC "-//W3C//DTD SVG 1.1//EN" "http://www.w3.org/Graphics/SVG/1.1/DTD/svg11.dtd">
<!-- Creator: CorelDRAW X7 -->
<svg xmlns="http://www.w3.org/2000/svg" xml:space="preserve" width="176.457mm" height="29.0554mm" version="1.1" style="shape-rendering:geometricPrecision; text-rendering:geometricPrecision; image-rendering:optimizeQuality; fill-rule:evenodd; clip-rule:evenodd"
viewBox="0 0 17646 2906"
 xmlns:xlink="http://www.w3.org/1999/xlink">
 <defs>
  <style type="text/css">
   <![CDATA[
    .fil3 {fill:#2E3E50}
    .fil2 {fill:#7E8E8C}
    .fil1 {fill:#7E8E8C;fill-rule:nonzero}
    .fil0 {fill:#C0242B;fill-rule:nonzero}
   ]]>
  </style>
 </defs>
 <g id="Layer_x0020_1">
  <metadata id="CorelCorpID_0Corel-Layer"/>
  <path class="fil0" d="M6172 593c-120,-118 -276,-178 -432,-178 -411,0 -615,303 -615,630 0,306 178,594 615,594 204,0 349,-78 464,-210l0 -490 -499 0 0 196 298 0 0 206c-92,73 -172,93 -263,93 -289,0 -401,-198 -401,-389 0,-239 151,-429 401,-429 101,0 218,42 296,117l136 -140zm1227 1004l-352 -397c221,-45 294,-206 294,-367 0,-202 -145,-385 -419,-386 -185,1 -369,0 -554,0l0 1165 220 0 0 -389 211 0 339 389 261 0 0 -15zm-477 -946c138,0 200,93 200,187 0,94 -60,187 -200,187l-334 0 0 -374 334 0zm786 5l330 0c279,0 281,412 0,412l-330 0 0 -412zm330 -209c-183,-2 -366,0 -549,0l0 1165 219 0 0 -342 330 0c570,0 568,-823 0,-823zm1130 209l329 0c280,0 281,412 0,412l-329 0 0 -412zm329 -209c-183,-2 -365,0 -548,0l0 1165 219 0 0 -342 329 0c571,0 569,-823 0,-823zm576 0l0 1165 818 0 0 -203 -599 0 0 -962 -219 0zm1897 1165l239 0 -522 -1165 -239 0 -522 1165 237 0 100 -219 609 0 98 219zm-187 -424l-432 0 216 -496 216 496zm636 424l219 0 0 -966 369 0 0 -199c-337,0 -622,0 -958,0l0 199 370 0 0 966zm941 0l0 -1165 -218 0 0 1165 218 0zm971 -443l-571 -722 -178 0 0 1165 220 0 0 -786 612 786 0 0 136 0 0 -1165 -219 0 0 722zm640 443l0 -1165 -218 0 0 1165 218 0zm1009 -1162l0 667c0,199 -103,321 -284,321 -182,0 -301,-112 -301,-321l0 -667 -218 0 0 667c0,350 238,520 517,520 292,0 504,-176 504,-520l0 -667 -218 0zm1446 1162l220 0 0 -1162 -251 0 -364 500 -365 -500 -252 0 0 1162 219 0 0 -845 371 506 43 0 379 -504 0 843z"/>
  <path class="fil1" d="M5615 2478l106 0 0 -562 -121 0 -177 242 -176 -242 -122 0 0 562 106 0 0 -409 180 245 20 0 184 -244 0 408zm441 0l0 -564 -106 0 0 564 106 0zm228 -564l0 564 396 0 0 -98 -290 0 0 -466 -106 0zm599 0l0 564 396 0 0 -98 -290 0 0 -466 -106 0zm1019 460l-316 0 0 -127 305 0 0 -99 -305 0 0 -131 316 0 0 -103 -421 0c0,188 0,377 0,564l421 0 0 -104zm598 -110l-276 -350 -86 0 0 564 106 0 0 -380 296 380 0 0 66 0 0 -564 -106 0 0 350zm438 214l0 -564 -105 0 0 564 105 0zm617 -562l0 323c0,96 -50,155 -138,155 -87,0 -145,-54 -145,-155l0 -323 -106 0 0 323c0,169 115,252 251,252 141,0 244,-86 244,-252l0 -323 -106 0zm829 562l106 0 0 -562 -121 0 -177 242 -176 -242 -122 0 0 562 106 0 0 -409 179 245 21 0 184 -244 0 408z"/>
  <path class="fil2" d="M2867 2073c-165,176 -399,285 -659,285 -259,0 -493,-109 -659,-285l1318 0zm-659 -1525c309,0 582,154 745,390l-1489 0c163,-236 436,-390 744,-390z"/>
  <path class="fil3" d="M3522 2073c-233,492 -733,833 -1314,833 -580,0 -1081,-341 -1314,-833l150 0c222,416 660,699 1164,699 504,0 943,-283 1165,-699l149 0zm-1314 -2073c621,0 1151,390 1359,938l-144 0c-200,-473 -669,-804 -1215,-804 -546,0 -1014,331 -1215,804l-144 0c208,-548 738,-938 1359,-938z"/>
  <path class="fil0" d="M369 1218c-42,-41 -97,-62 -152,-62 -145,0 -217,106 -217,222 0,108 63,209 217,209 72,0 123,-27 164,-74l0 -173 -176 0 0 70 105 0 0 72c-33,26 -61,33 -93,33 -102,0 -141,-70 -141,-137 0,-85 53,-151 141,-151 36,0 77,14 104,41l48 -50zm433 355l-124 -141c78,-15 104,-72 104,-129 0,-71 -51,-136 -148,-136 -65,0 -130,0 -195,0l0 411 77 0 0 -137 75 0 119 137 92 0 0 -5zm-168 -334c49,0 70,33 70,66 0,33 -21,66 -70,66l-118 0 0 -132 118 0zm277 2l116 0c99,0 100,145 0,145l-116 0 0 -145zm116 -74c-64,-1 -129,0 -193,0l0 411 77 0 0 -121 116 0c202,0 201,-290 0,-290zm399 74l116 0c99,0 99,145 0,145l-116 0 0 -145zm116 -74c-64,-1 -129,0 -193,0l0 411 77 0 0 -121 116 0c202,0 201,-290 0,-290zm203 0l0 411 289 0 0 -72 -211 0 0 -339 -78 0zm669 411l85 0 -184 -411 -85 0 -184 411 84 0 35 -78 215 0 34 78zm-65 -150l-153 0 77 -175 76 175zm224 150l77 0 0 -341 130 0 0 -70c-119,0 -219,0 -337,0l0 70 130 0 0 341zm332 0l0 -411 -77 0 0 411 77 0zm342 -156l-201 -255 -63 0 0 411 78 0 0 -277 216 277 0 0 48 0 0 -411 -78 0 0 255zm226 156l0 -411 -77 0 0 411 77 0zm356 -410l0 235c0,71 -36,113 -100,113 -64,0 -106,-39 -106,-113l0 -235 -77 0 0 235c0,124 84,184 182,184 103,0 178,-62 178,-184l0 -235 -77 0zm510 410l78 0 0 -410 -89 0 -128 176 -129 -176 -89 0 0 410 77 0 0 -298 131 178 15 0 134 -178 0 298z"/>
  <path class="fil1" d="M1435 1884l37 0 0 -199 -42 0 -63 85 -62 -85 -43 0 0 199 37 0 0 -145 64 87 7 0 65 -87 0 145zm155 0l0 -200 -37 0 0 200 37 0zm81 -200l0 200 140 0 0 -35 -103 0 0 -165 -37 0zm211 0l0 200 140 0 0 -35 -102 0 0 -165 -38 0zm360 163l-112 0 0 -45 108 0 0 -35 -108 0 0 -46 112 0 0 -37 -149 0c0,67 0,133 0,200l149 0 0 -37zm211 -39l-98 -124 -30 0 0 200 37 0 0 -135 105 135 0 0 23 0 0 -200 -37 0 0 124zm154 76l0 -200 -37 0 0 200 37 0zm218 -199l0 114c0,34 -18,55 -49,55 -31,0 -51,-19 -51,-55l0 -114 -37 0 0 114c0,60 40,89 88,89 50,0 86,-30 86,-89l0 -114 -37 0zm292 199l38 0 0 -199 -43 0 -63 85 -62 -85 -43 0 0 199 38 0 0 -145 63 87 7 0 65 -87 0 145z"/>
 </g>
</svg>
