<?xml version="1.0" standalone="no"?>
<!DOCTYPE svg PUBLIC "-//W3C//DTD SVG 20010904//EN"
 "http://www.w3.org/TR/2001/REC-SVG-20010904/DTD/svg10.dtd">
<svg version="1.0" xmlns="http://www.w3.org/2000/svg"
 width="840.000000pt" height="840.000000pt" viewBox="0 0 840.000000 840.000000"
 preserveAspectRatio="xMidYMid meet">
<metadata>
Created by potrace 1.11, written by Peter Selinger 2001-2013
</metadata>
<g transform="translate(0.000000,840.000000) scale(0.100000,-0.100000)"
fill="#000000" stroke="none">
<path d="M4019 6956 c-2 -2 -40 -7 -84 -10 -44 -4 -92 -9 -107 -11 -16 -3 -40
-7 -55 -9 -240 -34 -559 -135 -803 -257 -129 -64 -439 -261 -470 -299 -3 -3
-17 -15 -31 -25 -135 -104 -356 -333 -464 -480 -16 -22 -31 -42 -34 -45 -6 -5
-48 -68 -117 -175 -78 -120 -235 -448 -221 -461 4 -4 64 -8 134 -8 l128 -1 14
30 c8 17 15 32 15 35 7 31 184 342 219 385 4 6 26 35 49 65 66 90 132 166 254
294 69 72 305 266 323 266 5 0 11 3 13 8 4 9 88 64 173 113 314 183 684 298
1045 326 267 20 602 -6 793 -62 26 -8 47 -12 47 -10 0 2 16 -3 35 -11 19 -8
36 -14 37 -13 6 2 63 -14 73 -20 6 -3 12 -6 15 -6 55 -7 339 -134 454 -203 37
-23 70 -42 72 -42 7 0 190 -129 229 -162 11 -9 40 -33 65 -53 157 -129 346
-340 466 -520 49 -73 122 -198 121 -205 -1 -3 7 -18 19 -35 17 -25 43 -75 49
-95 12 -35 38 -80 48 -81 17 -1 195 -1 233 0 l32 1 -43 98 c-46 107 -109 230
-155 307 -16 28 -33 57 -37 65 -12 27 -192 280 -213 300 -3 3 -38 42 -78 87
-141 159 -302 303 -462 414 -47 32 -89 62 -95 66 -52 42 -293 169 -410 218
-49 20 -99 41 -110 45 -48 21 -292 97 -335 105 -14 3 -59 12 -100 20 -115 23
-121 24 -178 31 -29 3 -63 8 -75 11 -25 6 -473 14 -478 9z"/>
<path d="M4058 5915 c-2 -1 -28 -5 -58 -9 -60 -6 -101 -13 -140 -22 -14 -3
-36 -8 -50 -10 -14 -3 -39 -9 -56 -15 -17 -5 -40 -11 -50 -13 -44 -9 -216 -81
-303 -127 -83 -45 -207 -122 -221 -138 -3 -4 -23 -19 -45 -35 -58 -42 -232
-220 -293 -298 -48 -62 -50 -68 -30 -69 30 -1 2767 -1 2791 0 13 1 0 23 -53
90 -131 166 -345 348 -509 432 -36 19 -67 37 -69 42 -2 4 -8 7 -13 7 -4 0 -32
11 -61 24 -115 52 -263 95 -438 127 -54 10 -393 22 -402 14z"/>
<path d="M408 4765 c-2 -1 -25 -5 -53 -8 -85 -9 -159 -43 -218 -101 -130 -126
-165 -343 -81 -511 31 -63 38 -72 96 -118 57 -47 148 -77 243 -81 118 -5 219
29 299 100 l39 35 1 164 c1 138 -1 164 -14 167 -27 6 -309 2 -315 -4 -6 -6 -9
-51 -6 -105 1 -20 6 -22 64 -21 34 0 78 0 98 -1 l35 -1 1 -67 c1 -77 -8 -89
-88 -116 -68 -23 -202 -11 -241 22 -7 6 -22 19 -34 29 -78 65 -102 214 -51
324 46 102 121 152 227 152 93 0 124 -9 188 -56 22 -16 24 -15 68 30 l46 47
-33 28 c-45 37 -123 73 -179 82 -62 11 -88 14 -92 10z"/>
<path d="M851 4740 c-4 -3 -7 -179 -7 -391 l0 -386 70 1 71 1 3 128 c3 143 -8
128 94 129 46 1 50 -1 100 -58 87 -97 162 -185 168 -194 6 -9 180 -11 180 -1
0 7 -25 37 -109 131 -32 36 -72 81 -88 100 l-31 34 61 31 c93 46 137 125 129
235 -8 111 -82 203 -186 231 -40 11 -441 19 -455 9z m430 -152 c61 -27 85
-116 48 -176 -28 -45 -64 -55 -203 -56 l-131 -1 -3 126 -3 125 128 -1 c93 -1
138 -5 164 -17z"/>
<path d="M1599 4745 c-1 0 -3 -176 -3 -392 l-2 -392 75 1 76 1 -2 113 -1 112
151 4 c135 3 157 6 200 26 42 21 121 92 122 110 1 4 8 30 18 57 45 137 -29
291 -165 341 -38 14 -173 20 -469 19z m429 -159 c88 -46 99 -165 20 -229 -34
-27 -39 -28 -162 -30 -70 -2 -131 0 -135 3 -5 3 -9 63 -8 135 2 152 -10 141
152 138 69 -1 114 -7 133 -17z"/>
<path d="M2580 4740 c-5 -3 -9 -168 -9 -392 l1 -387 73 1 74 1 -2 48 c-1 27 1
49 4 49 4 0 4 17 0 38 -3 20 -5 49 -3 63 l3 27 152 4 c135 3 157 6 200 27 62
30 93 62 125 131 77 163 -17 352 -192 386 -40 8 -414 11 -426 4z m393 -144
c71 -13 110 -70 103 -149 -5 -48 -28 -82 -68 -103 -24 -13 -62 -16 -162 -17
-83 0 -130 3 -129 9 2 12 3 108 2 196 0 32 2 61 4 65 6 10 198 9 250 -1z"/>
<path d="M3338 4739 c-11 -6 -13 -76 -13 -391 l0 -383 273 -2 c149 0 272 2
273 5 0 4 1 34 2 67 l2 60 -200 1 -200 1 -1 317 c-1 174 -4 319 -7 322 -9 10
-113 12 -129 3z"/>
<path d="M4259 4742 c-15 -3 -24 -20 -84 -157 -15 -33 -40 -88 -56 -123 -16
-35 -29 -65 -29 -67 0 -2 -15 -36 -34 -77 -18 -40 -48 -107 -66 -148 -18 -41
-45 -101 -61 -133 -16 -33 -27 -62 -24 -67 2 -4 38 -8 79 -8 l74 -1 32 75 33
74 203 0 204 0 30 -67 c17 -37 36 -71 43 -75 20 -13 147 -6 147 8 0 7 -9 29
-20 51 -32 64 -110 235 -110 242 0 4 -11 29 -24 57 -22 46 -119 263 -164 367
-12 26 -25 47 -29 48 -27 3 -131 4 -144 1z m81 -187 c0 -8 11 -38 25 -67 54
-117 102 -233 99 -237 -7 -8 -266 -6 -271 2 -6 10 19 77 29 77 4 0 8 8 8 18 0
10 8 29 17 42 10 14 16 27 15 30 -1 3 12 38 29 78 30 68 49 90 49 57z"/>
<path d="M4650 4678 l0 -68 124 0 123 0 1 -307 c0 -170 1 -315 1 -324 1 -14
13 -17 71 -17 45 0 70 4 71 12 1 6 2 146 4 311 1 165 3 306 4 313 1 9 32 12
120 12 135 0 130 -4 121 84 l-5 51 -317 0 -318 0 0 -67z"/>
<path d="M5398 4742 c-15 -3 -16 -37 -15 -390 l2 -387 70 0 70 0 2 388 c1 213
-1 387 -5 388 -23 3 -110 4 -124 1z"/>
<path d="M5679 4741 c-4 -23 -3 -765 1 -771 3 -4 36 -7 75 -6 l69 1 1 258 c0
141 2 257 5 257 3 0 18 -19 35 -43 16 -23 37 -51 47 -62 9 -11 46 -58 82 -105
37 -47 72 -92 79 -100 7 -9 41 -54 77 -100 85 -112 79 -107 130 -106 l45 1 0
388 c1 213 -2 387 -5 388 -3 1 -35 2 -72 3 l-68 1 -1 -40 c0 -22 0 -131 -1
-243 l0 -203 -45 58 c-25 32 -57 74 -73 93 -83 103 -243 307 -249 318 -8 13
-130 25 -132 13z"/>
<path d="M6464 4735 c-2 -5 -3 -181 -1 -390 l2 -380 71 -1 70 -1 1 388 c0 214
-2 389 -6 390 -43 6 -134 2 -137 -6z"/>
<path d="M6805 4740 l-60 -5 2 -255 c1 -140 3 -262 5 -270 13 -51 34 -100 59
-133 31 -43 97 -96 129 -102 11 -2 25 -7 30 -10 14 -9 57 -16 110 -19 161 -8
293 83 338 234 3 8 7 138 9 288 4 242 3 272 -11 273 -9 0 -42 1 -73 1 l-58 1
-2 -249 c-1 -261 -2 -275 -26 -321 -56 -106 -219 -124 -314 -34 -42 39 -52
108 -52 331 0 275 1 267 -13 271 -7 2 -40 2 -73 -1z"/>
<path d="M7593 4740 c-17 -5 -18 -28 -18 -390 l0 -385 73 -1 c59 -1 72 2 73
15 0 9 1 134 1 279 0 144 3 260 7 258 4 -3 21 -24 37 -48 16 -23 35 -49 41
-58 7 -8 47 -61 88 -117 41 -57 82 -103 90 -103 8 0 69 72 135 160 66 88 124
160 128 160 4 0 7 -123 6 -274 l-1 -273 74 -1 73 -1 0 390 0 389 -47 1 c-91 2
-118 -2 -133 -20 -20 -24 -45 -57 -141 -188 -45 -62 -86 -113 -93 -113 -6 0
-22 17 -36 37 -14 20 -30 41 -35 47 -6 6 -19 25 -29 41 -11 17 -46 66 -79 110
l-59 80 -69 5 c-37 3 -76 3 -86 0z"/>
<path d="M2993 3762 c-31 -3 -32 -5 -30 -48 1 -24 0 -44 -3 -44 -7 0 -4 -256
4 -275 3 -9 18 -15 36 -15 l30 0 1 88 c1 165 0 295 -3 296 -2 1 -17 0 -35 -2z"/>
<path d="M3587 3756 c-2 -6 -3 -92 -3 -191 l1 -180 133 -3 132 -3 0 35 0 34
-91 -2 c-50 0 -94 1 -97 4 -4 3 -7 72 -7 155 l0 149 -32 7 c-20 4 -33 2 -36
-5z"/>
<path d="M4007 3762 c-21 -4 -19 15 -21 -200 l-1 -182 143 0 142 0 0 35 c0 39
12 36 -137 36 -78 1 -83 5 -76 55 l5 32 81 0 c133 -1 125 -3 118 34 l-7 32
-99 1 c-97 0 -99 1 -98 23 3 68 -7 62 108 62 l104 0 -1 35 c-1 33 -3 35 -37
35 -20 1 -75 2 -122 3 -47 1 -93 1 -102 -1z"/>
<path d="M4675 3762 c-3 -3 -5 -54 -5 -114 0 -59 -3 -108 -7 -107 -5 0 -46 49
-93 110 -70 90 -89 109 -111 109 -15 0 -29 -6 -31 -12 -3 -11 -3 -296 1 -350
1 -13 10 -18 35 -18 l33 0 0 120 c0 66 2 122 4 124 2 2 40 -43 84 -101 101
-132 111 -143 135 -143 19 0 20 8 20 189 l0 189 -30 4 c-17 3 -32 2 -35 0z"/>
<path d="M4924 3760 l-32 -5 0 -186 -1 -186 35 -1 c26 -1 34 3 35 16 4 68 3
345 -1 355 -3 8 -17 10 -36 7z"/>
<path d="M2409 3743 c0 -10 -1 -94 -1 -188 l-1 -170 35 -3 36 -3 0 83 c0 46 1
107 1 137 l1 55 60 -82 c33 -45 63 -82 67 -82 5 0 28 29 53 65 25 35 48 64 53
65 4 0 7 8 7 17 0 9 3 13 7 9 4 -4 8 -64 8 -134 l1 -127 35 -3 36 -3 -1 188
-1 187 -40 3 c-37 3 -42 0 -70 -39 -35 -51 -38 -55 -67 -91 l-23 -29 -39 56
c-61 89 -81 106 -121 106 -26 0 -35 -4 -36 -17z"/>
<path d="M3184 3573 l1 -188 130 0 130 0 3 31 3 32 -95 -2 c-79 -1 -96 2 -97
14 -1 8 -3 71 -4 140 -3 174 0 160 -38 160 l-33 0 0 -187z"/>
<path d="M5115 3622 c2 -116 5 -143 21 -168 67 -104 228 -107 288 -4 17 28 20
54 22 172 l2 139 -37 -2 -36 -3 1 -110 c0 -61 -3 -124 -8 -141 -15 -57 -73
-81 -131 -54 -41 19 -50 49 -51 181 l-1 122 -36 4 -35 3 1 -139z"/>
<path d="M5604 3568 l0 -189 36 3 35 3 -1 128 c0 70 2 127 6 127 4 0 31 -34
60 -75 29 -41 56 -75 61 -75 4 0 33 36 66 80 l58 79 5 -132 5 -132 33 -3 c21
-2 32 1 33 10 1 19 1 320 0 345 -1 19 -7 22 -41 21 -39 0 -43 -3 -97 -79 l-57
-80 -20 25 c-12 13 -39 49 -61 79 -38 53 -42 56 -81 55 l-41 0 1 -190z"/>
<path d="M1768 3022 l-58 -3 36 -72 c20 -40 62 -114 93 -165 31 -51 60 -101
66 -112 5 -11 13 -20 17 -20 5 0 8 -7 8 -15 0 -8 4 -15 8 -15 4 0 15 -13 25
-29 9 -16 32 -47 50 -68 17 -22 46 -57 62 -78 53 -69 162 -183 262 -275 95
-88 124 -112 193 -163 36 -27 72 -53 80 -60 35 -28 160 -106 225 -142 39 -21
78 -45 88 -53 9 -8 17 -12 17 -8 0 4 19 -4 43 -18 135 -78 485 -198 672 -231
17 -2 41 -7 55 -10 31 -6 96 -16 135 -21 17 -2 59 -7 95 -11 125 -15 537 -8
635 11 11 2 40 7 65 10 25 4 52 8 60 10 8 1 33 6 55 11 139 26 387 103 517
159 21 9 39 16 40 15 6 -4 264 135 346 185 105 65 246 165 250 177 2 5 8 9 13
9 5 0 17 8 27 17 11 10 54 50 97 88 80 72 187 180 247 249 18 21 42 49 53 62
11 12 27 32 35 45 8 12 22 29 30 38 18 20 142 206 160 241 7 14 16 27 19 30 3
3 17 28 31 55 14 28 27 52 30 55 12 12 30 51 30 65 0 8 5 15 10 15 6 0 10 5
10 10 0 6 -54 10 -143 10 l-144 0 -18 -40 c-10 -22 -22 -40 -27 -40 -4 0 -8
-5 -8 -11 0 -13 -146 -234 -175 -265 -5 -6 -23 -28 -40 -49 -61 -78 -183 -206
-276 -288 -30 -26 -61 -53 -69 -61 -28 -25 -218 -161 -278 -198 -78 -50 -271
-148 -357 -182 -38 -16 -79 -32 -90 -37 -94 -39 -329 -101 -455 -119 -41 -6
-86 -13 -100 -16 -191 -31 -552 -21 -765 21 -38 8 -81 16 -95 19 -72 12 -303
82 -365 111 -16 7 -50 21 -75 31 -60 23 -306 150 -320 164 -3 3 -30 21 -60 40
-30 19 -56 38 -58 42 -2 5 -8 8 -13 8 -9 0 -62 38 -105 75 -7 6 -29 24 -50 40
-194 152 -419 414 -556 646 l-63 107 -85 3 c-47 2 -111 3 -142 1z"/>
<path d="M2969 3019 c-10 -6 99 -114 166 -164 22 -16 42 -33 45 -36 3 -4 45
-32 95 -64 78 -51 177 -102 306 -159 40 -17 276 -87 287 -84 4 1 23 -2 42 -5
19 -4 49 -9 65 -12 58 -11 331 -14 405 -4 104 13 131 17 160 23 14 4 41 9 60
12 65 11 237 72 341 121 172 82 313 179 449 310 64 62 65 63 35 63 -317 4
-2450 3 -2456 -1z"/>
</g>
</svg>
